<?xml version="1.0" encoding="utf-8"?>
<!-- Generator: Adobe Illustrator 18.0.0, SVG Export Plug-In . SVG Version: 6.00 Build 0)  -->
<!DOCTYPE svg PUBLIC "-//W3C//DTD SVG 1.1//EN" "http://www.w3.org/Graphics/SVG/1.1/DTD/svg11.dtd">
<svg version="1.1" xmlns="http://www.w3.org/2000/svg" xmlns:xlink="http://www.w3.org/1999/xlink" x="0px" y="0px"
	 viewBox="0 0 200 200" enable-background="new 0 0 200 200" xml:space="preserve">
<g id="Layer_14">
</g>
<g id="rabbitmq">
</g>
<g id="python">
	<rect fill="#1B262D" width="200" height="200"/>
	<path fill="#FFD845" d="M159.5,86.8c-2.1-8.6-6.2-14.8-14.8-14.8h-12.1v12.7c0,10.2-7.7,19.6-17.6,19.6H85.4c-8.1,0-16,6.2-16,14.3
		v28.3c0,8,7.6,12.8,15.4,15.1c9.4,2.8,17.9,3.3,29.2,0c7.5-2.2,14.4-6.5,14.4-15.1v-10.3H98.9v-4.2h45.8c8.6,0,11.8-6.2,14.8-15.2
		C162.6,107.8,162.5,98.7,159.5,86.8L159.5,86.8z M116.9,143.1c3.1,0,5.6,2.5,5.6,5.6c0,3.1-2.5,5.7-5.6,5.7c-3.1,0-5.6-2.5-5.6-5.7
		C111.3,145.6,113.8,143.1,116.9,143.1z"/>
	<path fill="#386E99" d="M114.3,41c-5.1-0.8-10-1.2-15.1-1.2c-5.1,0-10.3,0.5-14.6,1.2c-12.6,2.2-15.2,6.9-15.2,15.4v11.3h29.5V72
		H59.4c-8.6,0-16.2,5-18.5,14.8c-2.7,11.3-2.8,18.5,0,30.3c2.1,8.8,7.1,15.2,15.8,15.2h9.9v-14.2c0-9.8,8.7-18.1,18.8-18.1H115
		c8.2,0,13.4-7.1,13.4-15.4V56.5C128.4,48.4,122.3,42.4,114.3,41z M83.5,60.2c-3.1,0-5.6-2.5-5.6-5.6c0-3.1,2.5-5.7,5.6-5.7
		c3.1,0,5.6,2.5,5.6,5.7C89.1,57.7,86.6,60.2,83.5,60.2z"/>
</g>
<g id="golang">
</g>
<g id="django">
</g>
<g id="postgres">
</g>
<g id="centos">
</g>
<g id="fedora">
</g>
<g id="ruby">
</g>
<g id="rails">
</g>
<g id="ubuntu">
</g>
<g id="php">
</g>
<g id="java">
</g>
<g id="deer-resume">
</g>
<g id="_x32_048">
</g>
<g id="redis">
</g>
<g id="wordpress">
</g>
<g id="ghost">
</g>
<g id="phpmyadmin">
</g>
<g id="mongo-express">
</g>
<g id="earth">
</g>
<g id="nginx">
</g>
<g id="mysql">
</g>
<g id="mongo-db">
</g>
<g id="docker">
</g>
<g id="tomcat">
</g>
</svg>
